<?xml version="1.0" encoding="UTF-8"?>
<svg id="Layer_1" data-name="Layer 1" xmlns="http://www.w3.org/2000/svg" viewBox="0 0 519.99 764.34">
  <circle cx="260.43" cy="146.08" r="146.08"/>
  <g>
    <path d="m274.71,387.36v376.68c79.35-120.98,203.39-141.43,245.08-141.43V245.64c-41.92.06-165.86,20.67-245.08,141.73Zm59.9,118.54c-.49.51-1.15.77-1.81.77-.62,0-1.24-.23-1.73-.69-1-.95-1.03-2.54-.08-3.54,7.94-8.31,16.53-16.11,25.51-23.16,32.15-25.25,70.17-42.04,113-49.88,1.36-.25,2.66.65,2.91,2.01.25,1.36-.65,2.66-2.01,2.91-42.03,7.7-79.31,24.15-110.82,48.9-8.8,6.91-17.2,14.54-24.98,22.69Zm136.62,29.16c-20.19,2.15-39.78,7.33-58.23,15.4-26.32,11.51-49.5,28.39-68.88,50.17-.49.55-1.18.84-1.87.84-.59,0-1.18-.21-1.66-.63-1.03-.92-1.12-2.5-.21-3.53,19.87-22.33,43.63-39.63,70.62-51.43,18.92-8.27,39-13.58,59.7-15.79,1.37-.13,2.6.85,2.75,2.22.15,1.37-.85,2.6-2.22,2.75Zm.27-201.31c-43.29,9.47-81.76,27.59-114.33,53.87-9.53,7.69-18.63,16.16-27.03,25.18-.49.53-1.16.8-1.83.8-.61,0-1.22-.22-1.7-.67-1.01-.94-1.07-2.52-.12-3.53,8.57-9.19,17.84-17.83,27.55-25.67,33.18-26.77,72.34-45.23,116.4-54.86,1.35-.29,2.68.56,2.98,1.91.29,1.35-.56,2.68-1.91,2.98Z"/>
    <path d="m519.79,245.63h0c.07,0,.14,0,.2,0h-.2Z"/>
    <path d="m274.71,764.34v-.3c-.07.1-.13.2-.2.3h.2Z"/>
  </g>
  <path d="m245.48,764.34C166.14,643.1,41.93,622.62.2,622.62V245.63h-.2c41.73,0,165.94,20.48,245.28,141.73v376.98"/>
</svg>