<svg version="1.1" id="Layer_2_00000134946973533077325840000012970870274517600919_"
    xmlns="http://www.w3.org/2000/svg" xmlns:xlink="http://www.w3.org/1999/xlink" x="0px" y="0px" viewBox="0 0 2400 3030"
    style="enable-background:new 0 0 2400 3030;" xml:space="preserve">
<style type="text/css">
    .st0{fill:#FFFFFF;}
    .st1{fill:#5D1717;}
    .st2{font-family:'SegoePrint';}
    .st3{font-size:100.0783px;}
    .st4{font-family:'ArialRoundedMTBold';}
    .st5{font-size:150.1131px;}
    .st6{letter-spacing:-1;}
    .st7{enable-background:new    ;}
    .st8{font-size:100px;}
    .st9{fill:none;}
    .st10{font-family:'SegoePrint-Bold';}
</style>

<g id="Layer_1-2">
    <g>
        <g>
            <circle class="st1" cx="926.8" cy="1358.9" r="12.8"/>
            <g>
                <path class="st1" d="M928,1380v32.9c6.9-10.6,17.8-12.4,21.4-12.4v-32.9C945.7,1367.6,934.9,1369.4,928,1380L928,1380z
                     M933.2,1390.4c0,0-0.1,0.1-0.2,0.1c0,0-0.1,0-0.1-0.1c-0.1-0.1-0.1-0.2,0-0.3c0.7-0.7,1.5-1.4,2.2-2c2.8-2.2,6.1-3.7,9.9-4.4
                    c0.1,0,0.2,0,0.3,0.2c0,0.1,0,0.2-0.2,0.3c-3.7,0.7-6.9,2.1-9.7,4.3C934.6,1389,933.9,1389.7,933.2,1390.4L933.2,1390.4z
                     M945.2,1392.9c-1.8,0.2-3.5,0.6-5.1,1.4c-2.3,1-4.3,2.5-6,4.4c0,0-0.1,0.1-0.2,0.1c0,0-0.1,0-0.1,0c-0.1-0.1-0.1-0.2,0-0.3
                    c1.7-1.9,3.8-3.5,6.2-4.5c1.7-0.7,3.4-1.2,5.2-1.4c0.1,0,0.2,0.1,0.2,0.2S945.3,1392.9,945.2,1392.9L945.2,1392.9z
                     M945.2,1375.3c-3.8,0.8-7.1,2.4-10,4.7c-0.8,0.7-1.6,1.4-2.4,2.2c0,0-0.1,0.1-0.2,0.1c0,0-0.1,0-0.1,0c-0.1-0.1-0.1-0.2,0-0.3
                    c0.7-0.8,1.6-1.6,2.4-2.2c2.9-2.3,6.3-4,10.2-4.8c0.1,0,0.2,0,0.3,0.2C945.4,1375.2,945.3,1375.3,945.2,1375.3L945.2,1375.3z"/>
                <path class="st1" d="M949.4,1367.6L949.4,1367.6L949.4,1367.6L949.4,1367.6z"/>
                <path class="st1" d="M928,1413L928,1413L928,1413L928,1413z"/>
            </g>
            <path class="st1" d="M925.4,1413c-6.9-10.6-17.8-12.4-21.4-12.4v-32.9h0c3.7,0,14.5,1.8,21.4,12.4L925.4,1413"/>
        </g>
        <text transform="matrix(1 0 0 1 1039.0708 1474.9496)" class="st1 st2 st3">L</text>
        <text transform="matrix(1 0 0 1 1039.0708 1474.9496)" class="st1 st2 st3">L</text>
        <text transform="matrix(1 0 0 1 1039.0708 1474.9496)" class="st1 st2 st3">L</text>
        <text transform="matrix(1 0 0 1 1067.0259 1474.9496)" class="st1 st2 st3">ea</text>
        <text transform="matrix(1 0 0 1 1067.0259 1474.9496)" class="st1 st2 st3">ea</text>
        <text transform="matrix(1 0 0 1 1067.0259 1474.9496)" class="st1 st2 st3">ea</text>
        <text transform="matrix(1 0 0 1 1114.7114 1474.9496)" class="st1 st2 st3">r</text>
        <text transform="matrix(1 0 0 1 1114.7114 1474.9496)" class="st1 st2 st3">r</text>
        <text transform="matrix(1 0 0 1 1114.7114 1474.9496)" class="st1 st2 st3">r</text>
        <text transform="matrix(1 0 0 1 1137.4917 1474.9496)" class="st1 st2 st3">n, how to lea</text>
        <text transform="matrix(1 0 0 1 1137.4917 1474.9496)" class="st1 st2 st3">n, how to lea</text>
        <text transform="matrix(1 0 0 1 1137.4917 1474.9496)" class="st1 st2 st3">n, how to lea</text>
        <text transform="matrix(1 0 0 1 1426.313 1474.9496)" class="st1 st2 st3">r</text>
        <text transform="matrix(1 0 0 1 1426.313 1474.9496)" class="st1 st2 st3">r</text>
        <text transform="matrix(1 0 0 1 1426.313 1474.9496)" class="st1 st2 st3">r</text>
        <text transform="matrix(1 0 0 1 1449.0933 1474.9496)" class="st1 st2 st3">n.</text>
        <text transform="matrix(1 0 0 1 1449.0933 1474.9496)" class="st1 st2 st3">n.</text>
        <text transform="matrix(1 0 0 1 1449.0933 1474.9496)" class="st1 st2 st3">n.</text>
        <text transform="matrix(1 0 0 1 972.7534 1407.8461)" class="st1 st4 st5">Cod</text>
        <text transform="matrix(1 0 0 1 1136.4233 1407.8461)" class="st1 st4 st5 st6">r</text>
        <text transform="matrix(1 0 0 1 1170.7573 1407.8461)" class="st1 st4 st5">u Educ</text>
        <text transform="matrix(1 0 0 1 1448.7065 1407.8461)" class="st1 st4 st5 st6">a</text>
        <text transform="matrix(1 0 0 1 1496.0278 1407.8461)" class="st1 st4 st5">tion</text>
    </g>
</g>
</svg>
