<?xml version="1.0" encoding="utf-8"?>
<!-- Generator: Adobe Illustrator 27.3.1, SVG Export Plug-In . SVG Version: 6.00 Build 0)  -->
<svg version="1.1" id="Layer_2_00000134946973533077325840000012970870274517600919_"
	 xmlns="http://www.w3.org/2000/svg" xmlns:xlink="http://www.w3.org/1999/xlink" x="0px" y="0px" viewBox="0 0 2400 3030"
	 style="enable-background:new 0 0 2400 3030;" xml:space="preserve">
<style type="text/css">
	.st0{fill:#FFFFFF;}
	.st1{fill:#5D1717;}
	.st2{font-family:'SegoePrint';}
	.st3{font-size:43.0783px;}
	.st4{font-family:'ArialRoundedMTBold';}
	.st5{font-size:83.1131px;}
	.st6{letter-spacing:-1;}
	.st7{enable-background:new    ;}
	.st8{font-size:45px;}
	.st9{fill:none;}
	.st10{font-family:'SegoePrint-Bold';}
</style>
<rect class="st0" width="2400" height="3030"/>
<g id="Layer_1-2">
	<g>
		<g>
			<circle class="st1" cx="926.8" cy="1358.9" r="12.8"/>
			<g>
				<path class="st1" d="M928,1380v32.9c6.9-10.6,17.8-12.4,21.4-12.4v-32.9C945.7,1367.6,934.9,1369.4,928,1380L928,1380z
					 M933.2,1390.4c0,0-0.1,0.1-0.2,0.1c0,0-0.1,0-0.1-0.1c-0.1-0.1-0.1-0.2,0-0.3c0.7-0.7,1.5-1.4,2.2-2c2.8-2.2,6.1-3.7,9.9-4.4
					c0.1,0,0.2,0,0.3,0.2c0,0.1,0,0.2-0.2,0.3c-3.7,0.7-6.9,2.1-9.7,4.3C934.6,1389,933.9,1389.7,933.2,1390.4L933.2,1390.4z
					 M945.2,1392.9c-1.8,0.2-3.5,0.6-5.1,1.4c-2.3,1-4.3,2.5-6,4.4c0,0-0.1,0.1-0.2,0.1c0,0-0.1,0-0.1,0c-0.1-0.1-0.1-0.2,0-0.3
					c1.7-1.9,3.8-3.5,6.2-4.5c1.7-0.7,3.4-1.2,5.2-1.4c0.1,0,0.2,0.1,0.2,0.2S945.3,1392.9,945.2,1392.9L945.2,1392.9z
					 M945.2,1375.3c-3.8,0.8-7.1,2.4-10,4.7c-0.8,0.7-1.6,1.4-2.4,2.2c0,0-0.1,0.1-0.2,0.1c0,0-0.1,0-0.1,0c-0.1-0.1-0.1-0.2,0-0.3
					c0.7-0.8,1.6-1.6,2.4-2.2c2.9-2.3,6.3-4,10.2-4.8c0.1,0,0.2,0,0.3,0.2C945.4,1375.2,945.3,1375.3,945.2,1375.3L945.2,1375.3z"/>
				<path class="st1" d="M949.4,1367.6L949.4,1367.6L949.4,1367.6L949.4,1367.6z"/>
				<path class="st1" d="M928,1413L928,1413L928,1413L928,1413z"/>
			</g>
			<path class="st1" d="M925.4,1413c-6.9-10.6-17.8-12.4-21.4-12.4v-32.9h0c3.7,0,14.5,1.8,21.4,12.4L925.4,1413"/>
		</g>
		<text transform="matrix(1 0 0 1 1039.0708 1474.9496)" class="st1 st2 st3">L</text>
		<text transform="matrix(1 0 0 1 1039.0708 1474.9496)" class="st1 st2 st3">L</text>
		<text transform="matrix(1 0 0 1 1039.0708 1474.9496)" class="st1 st2 st3">L</text>
		<text transform="matrix(1 0 0 1 1067.0259 1474.9496)" class="st1 st2 st3">ea</text>
		<text transform="matrix(1 0 0 1 1067.0259 1474.9496)" class="st1 st2 st3">ea</text>
		<text transform="matrix(1 0 0 1 1067.0259 1474.9496)" class="st1 st2 st3">ea</text>
		<text transform="matrix(1 0 0 1 1114.7114 1474.9496)" class="st1 st2 st3">r</text>
		<text transform="matrix(1 0 0 1 1114.7114 1474.9496)" class="st1 st2 st3">r</text>
		<text transform="matrix(1 0 0 1 1114.7114 1474.9496)" class="st1 st2 st3">r</text>
		<text transform="matrix(1 0 0 1 1137.4917 1474.9496)" class="st1 st2 st3">n, how to lea</text>
		<text transform="matrix(1 0 0 1 1137.4917 1474.9496)" class="st1 st2 st3">n, how to lea</text>
		<text transform="matrix(1 0 0 1 1137.4917 1474.9496)" class="st1 st2 st3">n, how to lea</text>
		<text transform="matrix(1 0 0 1 1426.313 1474.9496)" class="st1 st2 st3">r</text>
		<text transform="matrix(1 0 0 1 1426.313 1474.9496)" class="st1 st2 st3">r</text>
		<text transform="matrix(1 0 0 1 1426.313 1474.9496)" class="st1 st2 st3">r</text>
		<text transform="matrix(1 0 0 1 1449.0933 1474.9496)" class="st1 st2 st3">n.</text>
		<text transform="matrix(1 0 0 1 1449.0933 1474.9496)" class="st1 st2 st3">n.</text>
		<text transform="matrix(1 0 0 1 1449.0933 1474.9496)" class="st1 st2 st3">n.</text>
		<text transform="matrix(1 0 0 1 972.7534 1407.8461)" class="st1 st4 st5">Cod</text>
		<text transform="matrix(1 0 0 1 1136.4233 1407.8461)" class="st1 st4 st5 st6">r</text>
		<text transform="matrix(1 0 0 1 1170.7573 1407.8461)" class="st1 st4 st5">u Educ</text>
		<text transform="matrix(1 0 0 1 1448.7065 1407.8461)" class="st1 st4 st5 st6">a</text>
		<text transform="matrix(1 0 0 1 1496.0278 1407.8461)" class="st1 st4 st5">tion</text>
	</g>
</g>
<rect y="2603" class="st1" width="2400" height="264.7"/>
<text transform="matrix(1 0 0 1 136.4439 2700.155)" class="st7"><tspan x="0" y="0" class="st0 st4 st8">Shop No.: 1 &amp; 2, First Floor, </tspan><tspan x="0" y="54" class="st0 st4 st8">R.K. Puram (Sector A), </tspan><tspan x="0" y="108" class="st0 st4 st8">Kota (Raj.), 324005</tspan></text>
<g transform="translate(-232 -638)">
	<path class="st0" d="M326.4,3318.6c-2.8,0-5-2.2-5-5c0-2.8,2.2-5,5-5c2.8,0,5,2.2,5,5C331.4,3316.4,329.2,3318.6,326.4,3318.6z
		 M326.4,3302c-3.8,0-7.4,1.9-9.6,5.1c-2.2,3.2-2.6,7.2-1.2,10.8l5.3,11.6l4.5,9.5c0.2,0.4,0.6,0.6,1,0.6c0.4,0,0.8-0.2,1-0.6
		l4.5-9.5l5.3-11.6c1.4-3.6,0.9-7.6-1.2-10.8C333.8,3303.9,330.2,3302,326.4,3302z"/>
</g>
<path class="st0" d="M1996.2,2676.6c-5.8,11-5.2,22.7,1.3,26.1c1,0.5,2.1,0.8,3.1,0.9c1,0.1,1.9,0,2.8-0.2c0.8-0.1,1.4-0.8,1.5-1.5
	l1.6-8.9c0.2-1-0.5-2-1.5-2.1c-0.1,0-0.1,0-0.2,0l-2.5-0.2c-1-0.1-1.7-0.9-1.6-1.9c0-0.1,0-0.2,0.1-0.3c1.4-5.4,4-10.4,7.7-14.7
	c0.6-0.7,1.8-0.8,2.5-0.2c0.1,0.1,0.2,0.2,0.2,0.2l1.6,2c0.6,0.8,1.8,0.9,2.6,0.3l0.1-0.1l6.5-6.4c0.6-0.5,0.7-1.3,0.4-2
	c-0.4-0.9-0.9-1.7-1.5-2.5c-0.7-0.9-1.6-1.5-2.5-2C2011.9,2659.5,2002,2665.6,1996.2,2676.6z"/>
<text transform="matrix(1 0 0 1 2038.3296 2700.1555)" class="st7"><tspan x="0" y="0" class="st0 st4 st8">7300-199-100</tspan><tspan x="0" y="54" class="st0 st4 st8">8949-775-255</tspan></text>
<rect x="204.6" y="220.3" class="st9" width="1990.8" height="68.4"/>
<text transform="matrix(1 0 0 1 464.1689 257.4305)" class="st1 st10 st8">Take a break and appreciate your hard work. Open with a smile</text>
<path class="st1" d="M2270.2,247.8h-234.5c-1.3,0-2.4-1.1-2.4-2.4l0,0c0-1.3,1.1-2.4,2.4-2.4h234.5c1.3,0,2.4,1.1,2.4,2.4l0,0
	C2272.6,246.7,2271.5,247.8,2270.2,247.8z"/>
<path class="st1" d="M2267.5,236.1c2,6.9,1.9,11.7,0,18.4c4.8-5,13-7.2,18.5-8.9C2280.2,243.3,2272.4,240.6,2267.5,236.1z"/>
</svg>
